<?xml version="1.0" encoding="UTF-8"?>
<svg width="200px" height="199px" viewBox="0 0 200 199" version="1.1" xmlns="http://www.w3.org/2000/svg" xmlns:xlink="http://www.w3.org/1999/xlink">
    <!-- Generator: Sketch 51.3 (57544) - http://www.bohemiancoding.com/sketch -->
    <title>logo</title>
    <desc>Created with Sketch.</desc>
    <defs></defs>
    <g id="logo" stroke="none" stroke-width="1" fill="none" fill-rule="evenodd">
        <path d="M84,188.56392 L84,135 C84,133.343146 82.6568542,132 81,132 L62,132 C60.3431458,132 59,133.343146 59,135 L59,191.235641 C24.2168809,175.580345 0,140.61825 0,100 C0,44.771525 44.771525,0 100,0 C155.228475,0 200,44.771525 200,100 C200,133.163197 183.856839,162.555957 159.000002,180.748796 L159,55 C159,53.3431458 157.656854,52 156,52 L137,52 C135.343146,52 134,53.3431458 134,55 L134,191.562005 C130.335522,189.682084 126.304387,188.154928 122,187.048468 L122,101 C122,99.3431458 120.656854,98 119,98 L100,98 C98.3431458,98 97,99.3431458 97,101 L97,185.528735 C95.1820502,185.757542 93.3980804,186.05847 91.6538639,186.427319 C89.0040814,186.987669 86.4460461,187.704776 84,188.56392 Z" id="Combined-Shape" fill="#000000"></path>
    </g>
</svg>